#!OML:ASF \\Waltz\H\Terrain\Patient Classification 1\Animal2\Wednesday\Animal2.ASF
:FULLY-SPECIFIED
:DEGREES
1150
root 8.84583 16.3811 -22.166 1.14667 4.92336 -0.470221
lowerback 8.83369 -2.10075 1.09474
upperback -4.71281 -2.53822 1.53605
thorax -9.98112 -1.23687 1.46792
lowerneck 5.22916 10.2235 18.7886
upperneck 9.8102 15.7848 -15.7102
head 4.82212 8.14245 -7.22897
rclavicle 4.57205e-015 -9.54166e-015
rhumerus -3.06345 -14.7334 -27.952
rradius 25.0336
rwrist 33.3911
rhand -21.043 24.8559
rfingers 7.12502
rthumb 5.3328 -5.05698
lclavicle 4.57205e-015 -9.54166e-015
lhumerus -24.4739 -4.70414 20.3542
lradius 29.244
lwrist -2.67385
lhand -23.4759 22.1767
lfingers 7.12502
lthumb 2.9835 52.1355
rfemur -18.1265 -3.66534 24.8337
rtibia 53.9642
rfoot -37.3562 -9.82713
rtoes 5.14899
lfemur -20.9795 -0.294746 -21.8797
ltibia 55.3674
lfoot -32.6131 -4.25228
ltoes -3.62219
1151
root 8.84318 16.3781 -22.1708 1.13616 5.09301 -0.454688
lowerback 9.03538 -2.17288 1.10433
upperback -4.69794 -2.62931 1.54267
thorax -10.0837 -1.27997 1.49451
lowerneck 5.21869 10.2075 18.9039
upperneck 10.0457 15.8009 -15.8079
head 4.91539 8.15246 -7.27491
rclavicle 2.77305e-014 7.95139e-016
rhumerus -2.97106 -15.8533 -28.009
rradius 24.8843
rwrist 34.6405
rhand -20.6162 25.2882
rfingers 7.12502
rthumb 5.74489 -4.61388
lclavicle 2.77305e-014 7.95139e-016
lhumerus -24.6827 -4.966 20.2548
lradius 29.5167
lwrist -2.36865
lhand -23.3331 22.171
lfingers 7.12502
lthumb 3.12143 52.1279
rfemur -18.1531 -3.86365 24.8238
rtibia 54.0026
rfoot -37.4569 -9.73867
rtoes 5.432
lfemur -21.069 -0.37266 -21.8915
ltibia 55.4779
lfoot -32.7222 -3.64594
ltoes -5.85606
1152
root 8.83941 16.3797 -22.1692 1.1676 5.13877 -0.332602
lowerback 9.16012 -2.17284 1.00713
upperback -4.6655 -2.64449 1.49756
thorax -10.1191 -1.28205 1.50803
lowerneck 4.92458 10.2139 18.9614
upperneck 10.5001 15.8042 -15.7514
head 5.10378 8.14506 -7.24382
rclavicle 8.44835e-015 -5.1684e-015
rhumerus -2.81054 -17.0922 -28.234
rradius 24.583
rwrist 35.9328
rhand -20.3684 25.4725
rfingers 7.12502
rthumb 5.98415 -4.42296
lclavicle 8.44835e-015 -5.1684e-015
lhumerus -24.5988 -4.84008 20.119
lradius 29.4949
lwrist -2.54806
lhand -23.2085 22.326
lfingers 7.12502
lthumb 3.24172 52.2811
rfemur -18.2073 -3.8926 24.6927
rtibia 54.0479
rfoot -37.4913 -9.60454
rtoes 6.32887
lfemur -21.1401 -0.374913 -22.0127
ltibia 55.5508
lfoot -32.8137 -3.31479
ltoes -6.85225
1153
root 8.83271 16.3811 -22.1647 1.30936 5.0196 -0.321181
lowerback 9.09639 -2.11221 0.962997
upperback -4.64243 -2.57038 1.49838
thorax -10.0545 -1.24403 1.51662
lowerneck 4.4134 10.146 19.0489
upperneck 11.1022 15.689 -15.7343
head 5.35819 8.07047 -7.23069
rclavicle -1.00635e-014 3.97569e-016
rhumerus -2.81183 -17.2728 -28.3003
rradius 24.4688
rwrist 36.1434
rhand -20.6163 25.2981
rfingers 7.12502
rthumb 5.74479 -4.604
lclavicle -1.00635e-014 3.97569e-016
lhumerus -24.4699 -4.619 20.0034
lradius 29.3556
lwrist -2.69551
lhand -23.1191 22.5859
lfingers 7.12502
lthumb 3.32807 52.5397
rfemur -18.3841 -3.74118 24.7093
rtibia 54.0718
rfoot -37.4785 -9.63866
rtoes 7.05769
lfemur -21.3163 -0.195154 -21.9925
ltibia 55.5976
lfoot -32.8093 -3.31093
ltoes -6.89915
1154
root 8.82907 16.3818 -22.162 1.43615 4.99596 -0.340185
lowerback 9.05989 -2.1245 0.986436
upperback -4.66572 -2.5827 1.51489
thorax -10.0588 -1.25093 1.52249
lowerneck 4.98614 10.1258 18.9589
upperneck 10.8328 15.7212 -15.71
head 5.17597 8.10921 -7.24204
rclavicle -8.94531e-015 8.74653e-015
rhumerus -2.8107 -17.3541 -28.3814
rradius 24.4387
rwrist 36.1755
rhand -20.6772 25.3262
rfingers 7.12502
rthumb 5.686 -4.57748
lclavicle -8.94531e-015 8.74653e-015
lhumerus -24.6655 -5.00696 19.933
lradius 29.4979
lwrist -2.17357
lhand -23.3013 22.6226
lfingers 7.12502
lthumb 3.15212 52.579
rfemur -18.509 -3.76637 24.7513
rtibia 54.0717
rfoot -37.5666 -9.65497
rtoes 7.08144
lfemur -21.4706 -0.0862945 -21.9527
ltibia 55.6103
lfoot -32.7457 -3.49632
ltoes -6.68186
